Normalized EMG Linear Envelopes
nRows=183
nColumns=4

endheader
time	 med_gas_r	  soleus_r	 tib_ant_r	
3.56227	  0.058716	  0.079614	  0.008579	
3.62477	  0.059301	  0.088224	  0.009845	
3.68726	  0.058984	  0.093763	  0.010488	
3.74976	  0.057984	  0.095299	  0.010406	
3.81226	  0.057367	  0.094561	  0.009975	
3.87475	  0.057517	  0.094002	  0.009623	
3.93725	  0.057637	  0.094242	  0.009523	
3.99974	  0.057231	  0.094006	  0.009580	
4.06224	  0.057241	  0.092677	  0.009617	
4.12474	  0.058878	  0.091262	  0.009567	
4.18723	  0.062156	  0.090413	  0.009517	
4.24973	  0.066062	  0.089769	  0.009602	
4.31222	  0.068944	  0.089310	  0.009842	
4.37472	  0.068811	  0.089443	  0.010115	
4.43722	  0.065152	  0.090346	  0.010290	
4.49971	  0.060308	  0.091800	  0.010314	
4.56221	  0.057386	  0.092577	  0.010207	
4.6247	  0.057201	  0.090995	  0.010024	
4.6872	  0.058161	  0.087205	  0.009794	
4.7497	  0.058550	  0.083306	  0.009524	
4.81219	  0.058271	  0.081009	  0.009276	
4.87469	  0.058342	  0.080756	  0.009121	
4.93718	  0.059205	  0.082096	  0.009056	
4.99968	  0.060466	  0.083826	  0.009044	
5.06218	  0.061884	  0.085166	  0.009115	
5.12467	  0.063173	  0.086887	  0.009540	
5.18717	  0.063598	  0.090151	  0.010917	
5.24966	  0.063355	  0.095111	  0.014023	
5.31216	  0.064377	  0.101507	  0.019442	
5.37466	  0.068818	  0.109707	  0.026759	
5.43715	  0.077475	  0.119993	  0.034061	
5.49965	  0.089478	  0.130487	  0.039237	
5.56214	  0.102799	  0.137742	  0.041809	
5.62464	  0.114975	  0.141194	  0.042849	
5.68714	  0.123901	  0.144060	  0.044181	
5.74963	  0.129494	  0.149036	  0.048400	
5.81213	  0.134697	  0.157488	  0.057708	
5.87462	  0.142321	  0.170330	  0.071413	
5.93712	  0.151110	  0.184144	  0.085964	
5.99962	  0.158078	  0.192000	  0.097992	
6.06211	  0.163178	  0.192429	  0.106423	
6.12461	  0.168226	  0.190813	  0.111483	
6.1871	  0.173969	  0.192859	  0.112607	
6.2496	  0.181017	  0.203369	  0.109733	
6.3121	  0.190472	  0.223662	  0.105906	
6.37459	  0.203233	  0.246193	  0.104734	
6.43709	  0.222798	  0.261978	  0.107184	
6.49958	  0.253930	  0.270745	  0.113307	
6.56208	  0.290841	  0.276344	  0.123207	
6.62458	  0.317607	  0.280189	  0.135365	
6.68707	  0.329635	  0.281564	  0.147285	
6.74957	  0.336722	  0.279038	  0.157666	
6.81206	  0.340998	  0.274725	  0.166199	
6.87456	  0.339493	  0.276871	  0.172687	
6.93706	  0.343177	  0.292242	  0.178334	
6.99955	  0.359406	  0.317218	  0.186398	
7.06205	  0.373141	  0.342913	  0.199696	
7.12454	  0.375765	  0.368188	  0.218619	
7.18704	  0.380031	  0.397245	  0.242664	
7.24954	  0.391357	  0.425079	  0.271864	
7.31203	  0.401593	  0.438918	  0.305752	
7.37453	  0.404605	  0.435882	  0.342187	
7.43702	  0.397495	  0.428733	  0.376765	
7.49952	  0.388340	  0.429295	  0.404154	
7.56202	  0.394720	  0.433172	  0.420558	
7.62451	  0.418174	  0.428169	  0.425251	
7.68701	  0.445438	  0.413217	  0.425582	
7.7495	  0.467351	  0.401033	  0.439493	
7.812	  0.477511	  0.403753	  0.483459	
7.8745	  0.476573	  0.422453	  0.554612	
7.93699	  0.474351	  0.449467	  0.626281	
7.99949	  0.474275	  0.475130	  0.667646	
8.06198	  0.475373	  0.494020	  0.671661	
8.12448	  0.479835	  0.507671	  0.656536	
8.18698	  0.487104	  0.519003	  0.644937	
8.24947	  0.494525	  0.526422	  0.652606	
8.31197	  0.498896	  0.527146	  0.684215	
8.37446	  0.500426	  0.521793	  0.726782	
8.43696	  0.506079	  0.513648	  0.758109	
8.49946	  0.515160	  0.507914	  0.770729	
8.56195	  0.517165	  0.510829	  0.777517	
8.62445	  0.504436	  0.525366	  0.790648	
8.68694	  0.474134	  0.547129	  0.806635	
8.74944	  0.438791	  0.565005	  0.813296	
8.81194	  0.425134	  0.567379	  0.807096	
8.87443	  0.440331	  0.551141	  0.801989	
8.93693	  0.469745	  0.526185	  0.813805	
8.99942	  0.506646	  0.508552	  0.839960	
9.06192	  0.545756	  0.507834	  0.865701	
9.12442	  0.572769	  0.521424	  0.882261	
9.18691	  0.585859	  0.538849	  0.889194	
9.24941	  0.595284	  0.551547	  0.886479	
9.3119	  0.604647	  0.558821	  0.870641	
9.3744	  0.612612	  0.563248	  0.835875	
9.4369	  0.615154	  0.562632	  0.782892	
9.49939	  0.606787	  0.550928	  0.730900	
9.56189	  0.587137	  0.528602	  0.710429	
9.62438	  0.561491	  0.507833	  0.736176	
9.68688	  0.541128	  0.503614	  0.791536	
9.74938	  0.532457	  0.519449	  0.843101	
9.81187	  0.524647	  0.541094	  0.867201	
9.87437	  0.505698	  0.548862	  0.863238	
9.93686	  0.478490	  0.539536	  0.850692	
9.99936	  0.459130	  0.528499	  0.853425	
10.0619	  0.469516	  0.527623	  0.876556	
10.1244	  0.511635	  0.531343	  0.900794	
10.1868	  0.554487	  0.529529	  0.904924	
10.2493	  0.571838	  0.523625	  0.886974	
10.3118	  0.569661	  0.521282	  0.859427	
10.3743	  0.558293	  0.524197	  0.829827	
10.4368	  0.538814	  0.529864	  0.792559	
10.4993	  0.525680	  0.536477	  0.741727	
10.5618	  0.533597	  0.540360	  0.689149	
10.6243	  0.547060	  0.537039	  0.662639	
10.6868	  0.543827	  0.526478	  0.681876	
10.7493	  0.523852	  0.511488	  0.735376	
10.8118	  0.486999	  0.493942	  0.781740	
10.8743	  0.420482	  0.475205	  0.779942	
10.9368	  0.327971	  0.456814	  0.725239	
10.9993	  0.236837	  0.440584	  0.650384	
11.0618	  0.168889	  0.427898	  0.591286	
11.1243	  0.127097	  0.416085	  0.559591	
11.1868	  0.106435	  0.398137	  0.542078	
11.2493	  0.100515	  0.370143	  0.517934	
11.3118	  0.101665	  0.336067	  0.479329	
11.3743	  0.103552	  0.302958	  0.434524	
11.4368	  0.103707	  0.275385	  0.392500	
11.4993	  0.102454	  0.254791	  0.353916	
11.5618	  0.100393	  0.240612	  0.318274	
11.6243	  0.097845	  0.232614	  0.290078	
11.6868	  0.096172	  0.231522	  0.273236	
11.7492	  0.097081	  0.234428	  0.265431	
11.8117	  0.099366	  0.234598	  0.259807	
11.8742	  0.099078	  0.230536	  0.249504	
11.9367	  0.094808	  0.227428	  0.234452	
11.9992	  0.089929	  0.226246	  0.222871	
12.0617	  0.087491	  0.222025	  0.219512	
12.1242	  0.086026	  0.212990	  0.216800	
12.1867	  0.082701	  0.200204	  0.204161	
12.2492	  0.077925	  0.182616	  0.182362	
12.3117	  0.074751	  0.161689	  0.163507	
12.3742	  0.075431	  0.144428	  0.157891	
12.4367	  0.079625	  0.136688	  0.164413	
12.4992	  0.084837	  0.138232	  0.173585	
12.5617	  0.088488	  0.144196	  0.176692	
12.6242	  0.089961	  0.148386	  0.171332	
12.6867	  0.090236	  0.146726	  0.159735	
12.7492	  0.089776	  0.139257	  0.144888	
12.8117	  0.087942	  0.129872	  0.129964	
12.8742	  0.084891	  0.123874	  0.117562	
12.9367	  0.082380	  0.123677	  0.106460	
12.9992	  0.081423	  0.127204	  0.092792	
13.0617	  0.081200	  0.131182	  0.076048	
13.1242	  0.080805	  0.134124	  0.060211	
13.1867	  0.079688	  0.135866	  0.048674	
13.2492	  0.077214	  0.136245	  0.041446	
13.3116	  0.073913	  0.134562	  0.037324	
13.3741	  0.071804	  0.129358	  0.035035	
13.4366	  0.072212	  0.120139	  0.032483	
13.4991	  0.074110	  0.109768	  0.028844	
13.5616	  0.075399	  0.102092	  0.026085	
13.6241	  0.075680	  0.097809	  0.025856	
13.6866	  0.076575	  0.095488	  0.027352	
13.7491	  0.078933	  0.094538	  0.028612	
13.8116	  0.081382	  0.095175	  0.028112	
13.8741	  0.082744	  0.097038	  0.025942	
13.9366	  0.083722	  0.098824	  0.023456	
13.9991	  0.084123	  0.099270	  0.021187	
14.0616	  0.081713	  0.098294	  0.018790	
14.1241	  0.076415	  0.096807	  0.016867	
14.1866	  0.071791	  0.095733	  0.016542	
14.2491	  0.070590	  0.095141	  0.017422	
14.3116	  0.071852	  0.094129	  0.017960	
14.3741	  0.072926	  0.092143	  0.017817	
14.4366	  0.072545	  0.090186	  0.018031	
14.4991	  0.071805	  0.089596	  0.018779	
14.5616	  0.072582	  0.089908	  0.018992	
14.6241	  0.074711	  0.089356	  0.018278	
14.6866	  0.075782	  0.087511	  0.017596	
14.7491	  0.074165	  0.086007	  0.017914	
14.8116	  0.069950	  0.086531	  0.018658	
14.874	  0.063198	  0.089198	  0.017947	
14.9365	  0.054352	  0.093022	  0.015183	
